<svg xmlns="http://www.w3.org/2000/svg" viewBox="0 0 1200 900" role="img" aria-labelledby="title desc">
  <title id="title">Feuerholzregal</title><desc id="desc">Ein überdachtes Holzregal voller Feuerholz</desc>
  <rect width="1200" height="900" fill="#d8dec9"/><path d="M0 610Q250 550 535 612T1200 585V900H0Z" fill="#819d6b"/>
  <g fill="#527553"><path d="m75 615 125-410 132 410Z"/><path d="m900 610 120-430 135 430Z"/></g><circle cx="940" cy="137" r="70" fill="#eec569"/>
  <g stroke="#40362c" stroke-width="14" stroke-linejoin="round"><path d="m260 325 580-45 100 90-665 58Z" fill="#476049"/><path d="M300 420h600v380H300Z" fill="#8b633f"/><path d="M340 456h520v300H340Z" fill="#554738"/></g>
  <g fill="#b87a47" stroke="#4b392a" stroke-width="8"><g transform="translate(365 505)"><rect width="150" height="58" rx="28"/><circle cx="20" cy="29" r="18" fill="#d4a06a"/></g><g transform="translate(520 485)"><rect width="210" height="62" rx="30"/><circle cx="190" cy="31" r="20" fill="#d4a06a"/></g><g transform="translate(690 555)"><rect width="145" height="58" rx="28"/><circle cx="20" cy="29" r="18" fill="#d4a06a"/></g><g transform="translate(385 590)"><rect width="225" height="62" rx="30"/><circle cx="202" cy="31" r="20" fill="#d4a06a"/></g><g transform="translate(575 665)"><rect width="240" height="60" rx="29"/><circle cx="22" cy="30" r="19" fill="#d4a06a"/></g><g transform="translate(360 680)"><rect width="190" height="58" rx="28"/><circle cx="170" cy="29" r="18" fill="#d4a06a"/></g></g>
</svg>
